<?xml version="1.0" standalone="no"?>
<!DOCTYPE svg PUBLIC "-//W3C//DTD SVG 20010904//EN"
 "http://www.w3.org/TR/2001/REC-SVG-20010904/DTD/svg10.dtd">
<svg version="1.0" xmlns="http://www.w3.org/2000/svg"
 width="140.000000pt" height="140.000000pt" viewBox="0 0 140.000000 140.000000"
 preserveAspectRatio="xMidYMid meet">

<g transform="translate(0.000000,140.000000) scale(0.100000,-0.100000)"
fill="#fff" stroke="none">
<path d="M570 1385 c-244 -49 -446 -223 -526 -454 -53 -152 -53 -310 0 -462
36 -103 81 -174 166 -259 119 -119 236 -177 412 -203 136 -20 303 17 435 94
73 43 198 168 241 241 105 177 126 394 58 589 -112 322 -456 521 -786 454z
m300 -50 c101 -27 198 -83 279 -160 88 -84 141 -167 178 -280 22 -68 26 -98
26 -195 0 -97 -4 -127 -26 -195 -37 -113 -90 -196 -179 -280 -82 -79 -192
-140 -298 -166 -88 -22 -262 -16 -340 11 -108 37 -181 81 -260 157 -87 82
-140 165 -177 278 -22 68 -26 98 -26 195 0 97 4 127 26 195 35 105 84 185 163
266 98 99 221 164 358 189 65 12 205 4 276 -15z"/>
<path d="M650 1218 c-30 -35 -57 -67 -62 -72 -4 -6 -15 -3 -26 7 -25 23 -28
23 -88 -24 l-53 -41 -65 36 c-35 20 -71 36 -79 36 -34 0 -187 -235 -171 -262
6 -10 1181 -11 1187 0 15 23 -123 245 -161 260 -8 3 -43 -10 -78 -28 l-62 -34
-46 38 c-43 35 -49 37 -75 26 -27 -11 -31 -9 -91 54 -35 36 -66 66 -70 66 -4
0 -31 -28 -60 -62z m105 0 c24 -28 32 -44 23 -47 -7 -2 -20 -9 -28 -16 -16
-13 -69 -13 -107 0 -22 7 -21 9 20 56 23 27 45 49 49 49 3 0 23 -19 43 -42z
m183 -96 c5 -16 -50 -16 -66 0 -19 19 17 40 42 24 11 -7 22 -18 24 -24z m-353
-6 c38 -32 39 -33 18 -44 -21 -12 -58 -5 -111 21 l-24 11 29 23 c37 30 43 29
88 -11z"/>
<path d="M520 803 c0 -4 19 -52 42 -106 29 -68 46 -97 57 -95 17 4 104 195 91
203 -8 5 -40 -32 -40 -46 0 -4 -12 -33 -26 -65 l-25 -58 -37 84 c-20 46 -43
85 -49 88 -7 2 -13 0 -13 -5z"/>
<path d="M746 803 c-3 -3 -6 -51 -6 -105 0 -80 3 -98 15 -98 12 0 15 18 15 99
0 91 -7 121 -24 104z"/>
<path d="M835 760 c-54 -55 -55 -49 14 -122 19 -21 44 -38 54 -38 16 0 9 12
-33 56 l-53 56 42 42 c22 23 41 45 41 49 0 16 -19 4 -65 -43z"/>
<path d="M107 503 c-3 -5 7 -35 23 -68 78 -171 233 -299 418 -345 291 -74 598
73 722 345 16 33 26 63 23 68 -6 9 -1180 9 -1186 0z m617 -62 c3 -4 -1 -17 -9
-27 -15 -19 -15 -19 -30 0 -17 22 -11 36 15 36 10 0 21 -4 24 -9z m-4 -260
c15 -28 13 -31 -20 -31 -16 0 -30 3 -30 6 0 12 21 44 30 44 5 0 14 -9 20 -19z"/>
</g>
</svg>
