<svg xmlns="http://www.w3.org/2000/svg" width="353.333" height="364" preserveAspectRatio="xMidYMid meet" version="1.0" viewBox="0 0 265 273"><metadata>Created by potrace 1.16, written by Peter Selinger 2001-2019</metadata><g fill="#fff" stroke="none"><path d="M1276 2708 c-7 -13 -68 -116 -135 -229 -97 -165 -121 -214 -121 -244 0 -31 47 -119 276 -509 152 -259 287 -481 300 -493 25 -23 29 -23 308 -23 299 0 306 1 306 48 0 14 -184 337 -426 748 l-426 724 -34 0 c-24 0 -38 -6 -48 -22z" transform="translate(0.000000,273.000000) scale(0.100000,-0.100000)"/><path d="M848 1973 c-9 -10 -203 -337 -432 -726 -292 -496 -416 -717 -416 -737 0 -19 7 -33 20 -40 14 -7 112 -10 295 -8 l275 3 24 25 c14 14 149 236 300 495 221 375 276 477 276 505 0 27 -29 85 -126 250 -70 118 -133 223 -142 233 -8 9 -25 17 -37 17 -12 0 -29 -8 -37 -17z" transform="translate(0.000000,273.000000) scale(0.100000,-0.100000)"/><path d="M1153 993 c-22 -19 -272 -443 -280 -473 -3 -10 4 -27 16 -39 21 -21 22 -21 875 -21 929 0 886 -3 886 53 0 23 -237 436 -273 475 l-20 22 -593 0 c-549 0 -593 -1 -611 -17z" transform="translate(0.000000,273.000000) scale(0.100000,-0.100000)"/></g></svg>