<svg xmlns="http://www.w3.org/2000/svg" xmlns:xlink="http://www.w3.org/1999/xlink" width="480" height="480" viewBox="0 0 480 480"><g id="surface115482034"><path style="stroke:none;fill-rule:nonzero;fill:#f4511e;fill-opacity:1" d="M 422 221 L 259 58 C 254 53 247 50 240 50 C 233 50 226 53 221 58 L 186 93 L 227 134 C 231 132 235 131 240 131 C 257 131 270 144 270 161 C 270 166 269 170 267 174 L 307 214 C 311 212 315 211 320 211 C 337 211 350 224 350 241 C 350 258 337 271 320 271 C 303 271 290 258 290 241 C 290 236 291 232 293 228 L 253 188 C 252 188 251 189 250 189 L 250 293 C 262 297 270 308 270 321 C 270 338 257 351 240 351 C 223 351 210 338 210 321 C 210 308 218 297 230 293 L 230 188 C 218 184 210 173 210 160 C 210 155 211 151 213 147 L 172 106 L 58 221 C 53 226 50 233 50 240 C 50 247 53 254 58 259 L 221 422 C 226 427 233 430 240 430 C 247 430 254 427 259 422 L 422 259 C 427 254 430 247 430 240 C 430 233 427 226 422 221 Z M 422 221"/></g></svg>