<svg xmlns="http://www.w3.org/2000/svg" width="341.333" height="341.333" preserveAspectRatio="xMidYMid meet" version="1.0" viewBox="0 0 256 256"><metadata>Created by potrace 1.16, written by Peter Selinger 2001-2019</metadata><g fill="#fff" stroke="none"><path d="M2120 2077 c0 -5 37 -28 110 -69 108 -61 127 -73 143 -86 16 -14 17 -57 17 -642 0 -585 -1 -628 -17 -642 -10 -8 -71 -45 -135 -82 -65 -38 -118 -70 -118 -73 0 -5 22 7 188 104 l92 54 0 639 0 639 -92 54 c-166 97 -188 109 -188 104z" transform="translate(0.000000,256.000000) scale(0.100000,-0.100000)"/></g></svg>