<svg xmlns="http://www.w3.org/2000/svg" width="401.333" height="357.333" preserveAspectRatio="xMidYMid meet" version="1.0" viewBox="0 0 301 268"><metadata>Created by potrace 1.16, written by Peter Selinger 2001-2019</metadata><g fill="#7950DD" stroke="none"><path d="M654 2617 c-401 -231 -597 -352 -622 -385 l-27 -35 0 -458 c0 -449 0 -458 21 -486 27 -36 57 -56 299 -198 487 -287 464 -276 547 -251 25 7 248 134 494 281 721 431 733 437 778 442 55 7 80 -5 295 -133 140 -83 187 -116 208 -147 l28 -40 3 -249 c4 -342 28 -301 -288 -493 l-175 -106 -60 3 c-55 4 -73 12 -225 102 -295 176 -283 159 -288 384 -2 83 -6 152 -10 152 -3 0 -70 -39 -149 -86 l-143 -87 0 -152 c0 -141 2 -154 25 -202 25 -49 32 -54 253 -185 520 -309 480 -288 545 -288 70 0 59 -5 408 201 368 217 366 215 394 264 l25 42 0 432 c0 404 -1 434 -19 469 -10 20 -27 44 -37 53 -19 16 -629 381 -695 414 -23 12 -49 16 -88 13 -62 -4 -2 30 -906 -514 -373 -223 -379 -227 -437 -221 -38 3 -83 26 -244 123 -135 81 -208 131 -228 157 l-31 39 -3 246 c-2 152 1 261 7 282 16 54 60 89 266 209 258 151 226 152 515 -19 159 -94 205 -130 229 -177 7 -13 11 -82 11 -177 0 -105 4 -156 11 -156 6 0 75 39 155 86 l144 87 0 141 c0 156 -9 201 -46 246 -14 17 -179 122 -368 235 l-341 205 -61 0 c-56 0 -68 -5 -170 -63z" transform="translate(0.000000,268.000000) scale(0.100000,-0.100000)"/></g></svg>