<svg xmlns="http://www.w3.org/2000/svg" xmlns:xlink="http://www.w3.org/1999/xlink" width="500" height="500" viewBox="0 0 500 500"><g id="surface5587415"><path style="stroke:none;fill-rule:nonzero;fill:#2ecc71;fill-opacity:1" d="M 285 250 C 285 269.328125 269.328125 285 250 285 C 230.671875 285 215 269.328125 215 250 C 215 230.671875 230.671875 215 250 215 C 269.328125 215 285 230.671875 285 250 Z M 285 250"/><path style="stroke:none;fill-rule:nonzero;fill:#3498db;fill-opacity:1" d="M 250 290 C 227.945312 290 210 272.054688 210 250 C 210 227.945312 227.945312 210 250 210 C 272.054688 210 290 227.945312 290 250 C 290 272.054688 272.054688 290 250 290 Z M 250 220 C 233.453125 220 220 233.453125 220 250 C 220 266.546875 233.453125 280 250 280 C 266.546875 280 280 266.546875 280 250 C 280 233.453125 266.546875 220 250 220 Z M 250 220"/><path style="stroke:none;fill-rule:nonzero;fill:#2ecc71;fill-opacity:1" d="M 442.5 250 C 442.5 223.121094 410.128906 199.855469 359.910156 186.011719 C 372.820312 135.53125 368.84375 95.835938 345.773438 82.363281 C 336.675781 77.050781 325.636719 76.078125 312.964844 79.46875 C 293.875 84.578125 272 99.519531 250 121.464844 C 228 99.519531 206.125 84.585938 187.035156 79.46875 C 174.363281 76.074219 163.324219 77.050781 154.226562 82.363281 C 131.15625 95.835938 127.179688 135.523438 140.089844 186.011719 C 89.871094 199.855469 57.5 223.121094 57.5 250 C 57.5 276.878906 89.871094 300.144531 140.089844 313.996094 C 127.179688 364.476562 131.15625 404.171875 154.226562 417.640625 C 159.785156 420.886719 166.066406 422.519531 173.003906 422.515625 C 177.421875 422.515625 182.105469 421.855469 187.035156 420.535156 C 206.125 415.421875 228 400.484375 250 378.539062 C 272 400.484375 293.875 415.421875 312.964844 420.535156 C 317.894531 421.855469 322.578125 422.515625 326.996094 422.515625 C 333.933594 422.515625 340.214844 420.890625 345.773438 417.640625 C 368.84375 404.171875 372.816406 364.476562 359.910156 313.996094 C 410.128906 300.144531 442.5 276.878906 442.5 250 Z M 316.84375 93.953125 C 320.46875 92.988281 323.828125 92.5 326.925781 92.5 C 331.226562 92.5 335.003906 93.441406 338.210938 95.316406 C 353.671875 104.34375 356.824219 137.414062 345.308594 182.371094 C 329.445312 178.800781 312.136719 176.113281 293.738281 174.453125 C 282.945312 158.890625 271.714844 144.71875 260.398438 132.308594 C 280.488281 112.175781 300.199219 98.414062 316.84375 93.953125 Z M 303.773438 281.496094 C 297.878906 291.824219 291.675781 301.71875 285.308594 311.191406 C 274.011719 312.035156 262.230469 312.5 250 312.5 C 237.769531 312.5 225.988281 312.035156 214.695312 311.191406 C 208.328125 301.71875 202.125 291.824219 196.230469 281.496094 C 190.136719 270.816406 184.664062 260.296875 179.765625 250.003906 C 184.664062 239.714844 190.136719 229.195312 196.230469 218.511719 C 202.128906 208.175781 208.328125 198.28125 214.699219 188.808594 C 225.996094 187.964844 237.769531 187.5 250 187.5 C 262.230469 187.5 274.003906 187.964844 285.304688 188.808594 C 291.671875 198.28125 297.875 208.179688 303.773438 218.511719 C 309.871094 229.191406 315.339844 239.710938 320.238281 250.003906 C 315.339844 260.296875 309.871094 270.816406 303.773438 281.496094 Z M 328.21875 267.726562 C 333.425781 280.03125 337.726562 291.875 341.203125 303.136719 C 329.828125 305.671875 317.550781 307.785156 304.433594 309.351562 C 308.644531 302.71875 312.796875 295.941406 316.800781 288.925781 C 320.855469 281.828125 324.640625 274.753906 328.21875 267.726562 Z M 250 356.785156 C 241.820312 347.738281 233.65625 337.726562 225.679688 326.890625 C 233.640625 327.273438 241.738281 327.5 250 327.5 C 258.261719 327.5 266.359375 327.273438 274.320312 326.890625 C 266.34375 337.71875 258.179688 347.734375 250 356.785156 Z M 195.558594 309.351562 C 182.449219 307.785156 170.164062 305.671875 158.789062 303.136719 C 162.269531 291.875 166.570312 280.023438 171.773438 267.726562 C 175.355469 274.753906 179.144531 281.828125 183.195312 288.925781 C 187.203125 295.945312 191.351562 302.726562 195.558594 309.351562 Z M 171.78125 232.28125 C 166.574219 219.976562 162.269531 208.125 158.796875 196.859375 C 170.171875 194.324219 182.453125 192.210938 195.570312 190.644531 C 191.355469 197.273438 187.210938 204.058594 183.203125 211.074219 C 179.144531 218.175781 175.359375 225.25 171.78125 232.28125 Z M 250 143.21875 C 258.179688 152.265625 266.34375 162.28125 274.320312 173.113281 C 266.359375 172.726562 258.261719 172.5 250 172.5 C 241.738281 172.5 233.640625 172.726562 225.679688 173.109375 C 233.65625 162.28125 241.820312 152.265625 250 143.21875 Z M 316.800781 211.078125 C 312.796875 204.058594 308.644531 197.28125 304.433594 190.648438 C 317.550781 192.214844 329.828125 194.328125 341.210938 196.863281 C 337.730469 208.128906 333.429688 219.976562 328.226562 232.285156 C 324.640625 225.25 320.855469 218.175781 316.800781 211.078125 Z M 161.789062 95.316406 C 165 93.441406 168.769531 92.5 173.074219 92.5 C 176.164062 92.5 179.535156 92.988281 183.15625 93.953125 C 199.800781 98.414062 219.511719 112.171875 239.601562 132.304688 C 228.285156 144.714844 217.054688 158.890625 206.261719 174.449219 C 187.863281 176.109375 170.550781 178.796875 154.691406 182.363281 C 143.175781 137.410156 146.328125 104.339844 161.789062 95.316406 Z M 72.5 250 C 72.5 232.019531 99.503906 212.800781 144.175781 200.496094 C 149.019531 216.289062 155.378906 232.925781 163.203125 250 C 155.378906 267.074219 149.019531 283.710938 144.175781 299.503906 C 99.503906 287.199219 72.5 267.980469 72.5 250 Z M 183.15625 406.046875 C 174.488281 408.355469 167.304688 407.898438 161.789062 404.691406 C 146.328125 395.660156 143.179688 362.589844 154.691406 317.636719 C 170.550781 321.203125 187.863281 323.890625 206.253906 325.550781 C 217.050781 341.113281 228.28125 355.285156 239.59375 367.699219 C 219.511719 387.828125 199.800781 401.585938 183.15625 406.046875 Z M 338.210938 404.691406 C 332.695312 407.910156 325.515625 408.359375 316.84375 406.046875 C 300.199219 401.585938 280.488281 387.828125 260.398438 367.695312 C 271.714844 355.285156 282.945312 341.109375 293.738281 325.546875 C 312.136719 323.886719 329.445312 321.199219 345.304688 317.628906 C 356.824219 362.589844 353.671875 395.660156 338.210938 404.691406 Z M 355.824219 299.503906 C 350.980469 283.710938 344.621094 267.074219 336.796875 250 C 344.621094 232.925781 350.980469 216.285156 355.824219 200.496094 C 400.496094 212.800781 427.5 232.019531 427.5 250 C 427.5 267.980469 400.496094 287.199219 355.824219 299.503906 Z M 355.824219 299.503906"/><path style="stroke:none;fill-rule:nonzero;fill:#3498db;fill-opacity:1" d="M 172.976562 425.011719 C 165.621094 425.011719 158.890625 423.253906 152.96875 419.796875 C 129.808594 406.269531 124.054688 368.414062 137.078125 315.738281 C 84.875 300.894531 55 277 55 250 C 55 223 84.875 199.105469 137.074219 184.261719 C 124.054688 131.585938 129.808594 93.730469 152.96875 80.203125 C 162.660156 74.535156 174.335938 73.476562 187.683594 77.054688 C 206.273438 82.035156 227.785156 96.15625 250 117.949219 C 272.21875 96.15625 293.730469 82.035156 312.316406 77.054688 C 325.660156 73.484375 337.339844 74.546875 347.035156 80.203125 C 370.191406 93.730469 375.945312 131.585938 362.925781 184.261719 C 415.125 199.105469 445 223 445 250 C 445 277 415.125 300.894531 362.925781 315.738281 C 375.945312 368.414062 370.195312 406.265625 347.035156 419.796875 C 337.398438 425.421875 325.605469 426.503906 312.320312 422.945312 C 293.726562 417.964844 272.214844 403.84375 250 382.054688 C 227.785156 403.84375 206.273438 417.96875 187.683594 422.945312 C 182.570312 424.316406 177.628906 425.011719 173.003906 425.011719 C 172.996094 425.011719 172.984375 425.011719 172.976562 425.011719 Z M 173.019531 79.996094 C 166.515625 79.996094 160.648438 81.503906 155.484375 84.523438 C 134.363281 96.859375 129.515625 134.566406 142.511719 185.390625 C 142.84375 186.710938 142.066406 188.058594 140.75 188.421875 C 90.191406 202.359375 60 225.386719 60 250 C 60 274.613281 90.191406 297.640625 140.753906 311.578125 C 142.070312 311.941406 142.851562 313.289062 142.515625 314.609375 C 129.515625 365.433594 134.363281 403.144531 155.484375 415.476562 C 160.636719 418.480469 166.519531 420.003906 172.976562 420.003906 C 172.984375 420.003906 172.996094 420.003906 173.003906 420.003906 C 177.195312 420.003906 181.695312 419.371094 186.390625 418.113281 C 204.625 413.230469 226.015625 398.933594 248.234375 376.765625 C 249.210938 375.796875 250.789062 375.796875 251.765625 376.765625 C 273.984375 398.929688 295.375 413.226562 313.609375 418.113281 C 325.578125 421.308594 336.035156 420.421875 344.515625 415.476562 C 365.636719 403.140625 370.484375 365.433594 357.484375 314.609375 C 357.148438 313.289062 357.929688 311.941406 359.246094 311.578125 C 409.808594 297.640625 440 274.613281 440 250 C 440 225.386719 409.808594 202.359375 359.246094 188.421875 C 357.929688 188.058594 357.148438 186.710938 357.484375 185.390625 C 370.480469 134.566406 365.628906 96.855469 344.511719 84.523438 C 336.015625 79.558594 325.613281 78.675781 313.605469 81.886719 C 295.371094 86.769531 273.984375 101.066406 251.761719 123.234375 C 250.785156 124.203125 249.203125 124.203125 248.230469 123.234375 C 226.003906 101.066406 204.621094 86.769531 186.386719 81.886719 C 181.679688 80.625 177.21875 79.996094 173.019531 79.996094 Z M 326.929688 409.996094 C 323.613281 409.996094 320.035156 409.484375 316.199219 408.460938 C 299.546875 403.996094 279.640625 390.515625 258.628906 369.460938 C 257.691406 368.515625 257.65625 366.996094 258.550781 366.011719 C 269.875 353.589844 281.019531 339.496094 291.683594 324.121094 C 292.105469 323.511719 292.773438 323.121094 293.515625 323.054688 C 311.574219 321.425781 328.816406 318.78125 344.761719 315.191406 C 346.066406 314.894531 347.394531 315.695312 347.730469 317.011719 C 359.410156 362.625 356.246094 397.050781 339.46875 406.84375 C 335.875 408.945312 331.679688 409.996094 326.929688 409.996094 Z M 263.855469 367.605469 C 283.609375 387.074219 302.121094 399.511719 317.488281 403.628906 C 325.484375 405.765625 332.035156 405.394531 336.949219 402.53125 C 351.226562 394.191406 353.734375 362.164062 343.480469 320.59375 C 328.339844 323.890625 312.09375 326.355469 295.128906 327.929688 C 285.050781 342.390625 274.539062 355.71875 263.855469 367.605469 Z M 173.070312 409.996094 C 168.320312 409.996094 164.125 408.945312 160.53125 406.851562 C 143.753906 397.050781 140.585938 362.625 152.269531 317.011719 C 152.605469 315.699219 153.933594 314.914062 155.238281 315.191406 C 171.179688 318.78125 188.421875 321.425781 206.484375 323.054688 C 207.21875 323.121094 207.894531 323.511719 208.316406 324.121094 C 218.980469 339.496094 230.125 353.589844 241.449219 366.011719 C 242.351562 366.996094 242.316406 368.515625 241.371094 369.460938 C 220.359375 390.511719 200.453125 403.996094 183.804688 408.460938 C 179.964844 409.480469 176.378906 409.996094 173.070312 409.996094 Z M 156.519531 320.59375 C 146.265625 362.160156 148.773438 394.191406 163.050781 402.53125 C 167.960938 405.390625 174.511719 405.765625 182.511719 403.628906 C 197.878906 399.511719 216.390625 387.070312 236.144531 367.605469 C 225.464844 355.71875 214.953125 342.390625 204.875 327.929688 C 187.910156 326.355469 171.660156 323.890625 156.519531 320.59375 Z M 250 359.28125 C 249.296875 359.28125 248.621094 358.980469 248.144531 358.453125 C 239.828125 349.261719 231.59375 339.136719 223.664062 328.363281 C 223.09375 327.589844 223.019531 326.550781 223.476562 325.699219 C 223.929688 324.851562 224.78125 324.328125 225.800781 324.386719 C 242.328125 325.191406 257.671875 325.191406 274.199219 324.386719 C 275.199219 324.324219 276.070312 324.851562 276.523438 325.699219 C 276.980469 326.550781 276.910156 327.585938 276.335938 328.363281 C 268.40625 339.128906 260.171875 349.253906 251.855469 358.453125 C 251.378906 358.980469 250.703125 359.28125 250 359.28125 Z M 230.835938 329.621094 C 237.089844 337.894531 243.519531 345.75 250 353.039062 C 256.484375 345.75 262.910156 337.898438 269.164062 329.621094 C 256.105469 330.121094 243.894531 330.121094 230.835938 329.621094 Z M 250 315 C 238.15625 315 226.214844 314.558594 214.503906 313.683594 C 213.738281 313.628906 213.046875 313.226562 212.613281 312.585938 C 205.929688 302.640625 199.683594 292.59375 194.054688 282.734375 C 188.15625 272.394531 182.585938 261.746094 177.503906 251.074219 C 177.179688 250.394531 177.179688 249.605469 177.503906 248.925781 C 182.585938 238.253906 188.15625 227.605469 194.054688 217.265625 C 199.679688 207.414062 205.925781 197.371094 212.621094 187.410156 C 213.046875 186.773438 213.746094 186.371094 214.511719 186.308594 C 237.929688 184.558594 262.074219 184.558594 285.488281 186.308594 C 286.253906 186.363281 286.949219 186.769531 287.378906 187.410156 C 294.074219 197.371094 300.320312 207.414062 305.945312 217.265625 C 311.84375 227.605469 317.414062 238.253906 322.496094 248.925781 C 322.820312 249.605469 322.820312 250.394531 322.496094 251.074219 C 317.414062 261.746094 311.84375 272.394531 305.945312 282.734375 C 300.316406 292.59375 294.070312 302.640625 287.386719 312.585938 C 286.960938 313.21875 286.261719 313.625 285.496094 313.683594 C 273.785156 314.558594 261.84375 315 250 315 Z M 216.089844 308.785156 C 238.484375 310.394531 261.515625 310.394531 283.90625 308.785156 C 290.269531 299.269531 296.21875 289.675781 301.601562 280.25 C 307.238281 270.363281 312.574219 260.195312 317.464844 250 C 312.574219 239.804688 307.238281 229.628906 301.601562 219.75 C 296.226562 210.335938 290.273438 200.738281 283.898438 191.210938 C 261.503906 189.601562 238.480469 189.601562 216.085938 191.210938 C 209.714844 200.738281 203.761719 210.335938 198.386719 219.75 C 192.746094 229.636719 187.410156 239.804688 182.519531 250 C 187.410156 260.195312 192.746094 270.371094 198.386719 280.25 C 203.773438 289.679688 209.726562 299.269531 216.089844 308.785156 Z M 304.441406 311.855469 C 303.589844 311.855469 302.785156 311.421875 302.324219 310.691406 C 301.808594 309.871094 301.816406 308.828125 302.328125 308.015625 C 306.96875 300.710938 310.996094 294.058594 314.628906 287.691406 C 318.449219 281 322.269531 273.898438 325.996094 266.59375 C 326.433594 265.730469 327.359375 265.214844 328.308594 265.234375 C 329.28125 265.269531 330.144531 265.859375 330.523438 266.761719 C 335.601562 278.753906 339.996094 290.75 343.59375 302.40625 C 343.804688 303.070312 343.71875 303.796875 343.371094 304.394531 C 343.019531 305 342.429688 305.429688 341.75 305.578125 C 330 308.203125 317.546875 310.308594 304.734375 311.839844 C 304.636719 311.851562 304.535156 311.855469 304.441406 311.855469 Z M 327.980469 273.65625 C 325.011719 279.34375 321.988281 284.878906 318.976562 290.164062 C 316.058594 295.273438 312.894531 300.558594 309.375 306.210938 C 319.226562 304.898438 328.824219 303.246094 338.011719 301.273438 C 335.125 292.203125 331.765625 282.949219 327.980469 273.65625 Z M 195.558594 311.855469 C 195.460938 311.855469 195.359375 311.851562 195.261719 311.839844 C 182.453125 310.304688 170 308.199219 158.25 305.574219 C 157.570312 305.425781 156.984375 304.996094 156.628906 304.390625 C 156.28125 303.785156 156.199219 303.066406 156.40625 302.398438 C 160.003906 290.738281 164.398438 278.75 169.476562 266.753906 C 169.855469 265.859375 170.71875 265.265625 171.691406 265.230469 C 172.601562 265.136719 173.566406 265.726562 174.003906 266.589844 C 177.730469 273.894531 181.550781 280.996094 185.371094 287.683594 C 189.011719 294.054688 193.035156 300.703125 197.671875 308.011719 C 198.191406 308.824219 198.191406 309.863281 197.675781 310.683594 C 197.214844 311.421875 196.414062 311.855469 195.558594 311.855469 Z M 161.996094 301.273438 C 171.179688 303.246094 180.78125 304.898438 190.628906 306.210938 C 187.105469 300.558594 183.945312 295.273438 181.03125 290.164062 C 178.011719 284.878906 174.996094 279.339844 172.023438 273.65625 C 168.234375 282.949219 164.875 292.203125 161.996094 301.273438 Z M 355.824219 302.003906 C 354.75 302.003906 353.765625 301.308594 353.433594 300.234375 C 348.558594 284.339844 342.195312 267.789062 334.523438 251.046875 C 334.21875 250.386719 334.21875 249.621094 334.523438 248.960938 C 342.195312 232.214844 348.558594 215.660156 353.441406 199.761719 C 353.839844 198.464844 355.210938 197.738281 356.496094 198.085938 C 401.835938 210.578125 430 230.46875 430 250 C 430 269.53125 401.828125 289.421875 356.484375 301.914062 C 356.265625 301.976562 356.039062 302.003906 355.824219 302.003906 Z M 339.546875 250 C 346.726562 265.773438 352.761719 281.386719 357.488281 296.441406 C 398.585938 284.726562 425 266.609375 425 250 C 425 233.390625 398.585938 215.273438 357.488281 203.558594 C 352.753906 218.621094 346.71875 234.230469 339.546875 250 Z M 144.175781 302.003906 C 143.953125 302.003906 143.734375 301.976562 143.511719 301.914062 C 98.171875 289.421875 70 269.53125 70 250 C 70 230.46875 98.164062 210.578125 143.511719 198.085938 C 144.800781 197.738281 146.164062 198.464844 146.566406 199.761719 C 151.445312 215.660156 157.808594 232.214844 165.480469 248.960938 C 165.785156 249.621094 165.785156 250.378906 165.480469 251.046875 C 157.804688 267.796875 151.445312 284.34375 146.570312 300.234375 C 146.238281 301.308594 145.25 302.003906 144.175781 302.003906 Z M 142.511719 203.558594 C 101.414062 215.273438 75 233.390625 75 250 C 75 266.609375 101.414062 284.726562 142.511719 296.441406 C 147.246094 281.386719 153.273438 265.78125 160.453125 250 C 153.28125 234.230469 147.246094 218.621094 142.511719 203.558594 Z M 328.226562 234.785156 C 327.285156 234.785156 326.425781 234.261719 325.996094 233.421875 C 322.210938 225.980469 318.488281 219.074219 314.636719 212.320312 C 311.003906 205.960938 306.980469 199.308594 302.328125 191.988281 C 301.808594 191.175781 301.808594 190.136719 302.324219 189.316406 C 302.839844 188.5 303.761719 188.050781 304.738281 188.164062 C 317.554688 189.699219 330.011719 191.804688 341.761719 194.425781 C 342.441406 194.574219 343.023438 195.003906 343.378906 195.609375 C 343.730469 196.214844 343.808594 196.933594 343.605469 197.601562 C 340 209.28125 335.601562 221.273438 330.535156 233.253906 C 330.15625 234.148438 329.289062 234.746094 328.320312 234.78125 C 328.28125 234.785156 328.25 234.785156 328.226562 234.785156 Z M 318.96875 209.839844 C 322.023438 215.191406 324.996094 220.628906 327.976562 226.351562 C 331.753906 217.070312 335.113281 207.804688 338 198.726562 C 328.816406 196.753906 319.214844 195.101562 309.359375 193.789062 C 312.898438 199.449219 316.058594 204.734375 318.96875 209.839844 Z M 171.773438 234.785156 C 171.746094 234.785156 171.714844 234.785156 171.683594 234.785156 C 170.714844 234.75 169.851562 234.160156 169.46875 233.261719 C 164.40625 221.28125 160.003906 209.285156 156.398438 197.605469 C 156.191406 196.941406 156.273438 196.214844 156.625 195.613281 C 156.976562 195.011719 157.566406 194.578125 158.246094 194.429688 C 169.996094 191.804688 182.449219 189.699219 195.265625 188.171875 C 196.238281 188.070312 197.164062 188.503906 197.679688 189.320312 C 198.195312 190.140625 198.191406 191.179688 197.675781 191.996094 C 193.023438 199.316406 189 205.964844 185.371094 212.324219 C 181.515625 219.078125 177.796875 225.980469 174.011719 233.425781 C 173.574219 234.261719 172.714844 234.785156 171.773438 234.785156 Z M 161.996094 198.726562 C 164.878906 207.804688 168.246094 217.070312 172.019531 226.351562 C 175.003906 220.628906 177.96875 215.191406 181.023438 209.839844 C 183.941406 204.734375 187.101562 199.449219 190.628906 193.789062 C 180.78125 195.101562 171.179688 196.753906 161.996094 198.726562 Z M 345.316406 184.871094 C 345.128906 184.871094 344.949219 184.851562 344.765625 184.808594 C 328.824219 181.21875 311.578125 178.574219 293.515625 176.945312 C 292.78125 176.878906 292.105469 176.488281 291.683594 175.878906 C 281.019531 160.5 269.871094 146.410156 258.550781 133.996094 C 257.648438 133.011719 257.683594 131.488281 258.628906 130.546875 C 279.636719 109.496094 299.546875 96.003906 316.199219 91.546875 C 325.546875 89.046875 333.390625 89.609375 339.46875 93.15625 C 356.246094 102.953125 359.414062 137.378906 347.734375 182.996094 C 347.445312 184.113281 346.433594 184.871094 345.316406 184.871094 Z M 295.125 172.070312 C 312.089844 173.644531 328.339844 176.109375 343.480469 179.40625 C 353.734375 137.839844 351.226562 105.808594 336.945312 97.46875 C 332.050781 94.613281 325.488281 94.238281 317.488281 96.371094 C 302.121094 100.488281 283.605469 112.929688 263.851562 132.398438 C 274.535156 144.273438 285.046875 157.605469 295.125 172.070312 Z M 154.683594 184.871094 C 153.566406 184.871094 152.554688 184.113281 152.265625 182.988281 C 140.585938 137.375 143.75 102.953125 160.523438 93.15625 C 160.523438 93.15625 160.523438 93.15625 160.53125 93.15625 C 166.609375 89.609375 174.464844 89.046875 183.796875 91.546875 C 200.453125 96.011719 220.359375 109.496094 241.363281 130.546875 C 242.304688 131.488281 242.339844 133.011719 241.445312 133.996094 C 230.125 146.410156 218.976562 160.503906 208.308594 175.878906 C 207.890625 176.488281 207.21875 176.878906 206.480469 176.945312 C 188.421875 178.574219 171.175781 181.21875 155.230469 184.808594 C 155.050781 184.851562 154.871094 184.871094 154.683594 184.871094 Z M 163.050781 97.46875 C 148.773438 105.808594 146.265625 137.839844 156.515625 179.40625 C 171.65625 176.109375 187.90625 173.644531 204.871094 172.070312 C 214.953125 157.605469 225.460938 144.273438 236.140625 132.394531 C 216.386719 112.925781 197.875 100.484375 182.5 96.363281 C 174.535156 94.238281 167.964844 94.609375 163.050781 97.46875 Z M 274.320312 175.609375 C 274.28125 175.609375 274.238281 175.609375 274.199219 175.609375 C 257.671875 174.804688 242.335938 174.804688 225.804688 175.609375 C 224.773438 175.636719 223.933594 175.140625 223.480469 174.296875 C 223.023438 173.445312 223.09375 172.410156 223.671875 171.628906 C 231.605469 160.855469 239.839844 150.730469 248.148438 141.539062 C 249.101562 140.496094 250.910156 140.496094 251.859375 141.539062 C 260.164062 150.726562 268.398438 160.851562 276.339844 171.628906 C 276.910156 172.40625 276.984375 173.445312 276.53125 174.296875 C 276.085938 175.105469 275.234375 175.609375 274.320312 175.609375 Z M 250 170 C 256.210938 170 262.636719 170.128906 269.164062 170.386719 C 262.90625 162.101562 256.476562 154.246094 250 146.964844 C 243.523438 154.25 237.09375 162.101562 230.835938 170.386719 C 237.363281 170.128906 243.789062 170 250 170 Z M 250 170"/></g></svg>